<?xml version="1.0" encoding="UTF-8" standalone="no"?>
<svg
   xmlns:dc="http://purl.org/dc/elements/1.1/"
   xmlns:cc="http://creativecommons.org/ns#"
   xmlns:rdf="http://www.w3.org/1999/02/22-rdf-syntax-ns#"
   xmlns:svg="http://www.w3.org/2000/svg"
   xmlns="http://www.w3.org/2000/svg"
   width="200.59654mm"
   height="51.48378mm"
   viewBox="0 0 200.59654 51.48378"
   version="1.1"
   id="svg8">
  <defs
     id="defs2" />
  <metadata
     id="metadata5">
    <rdf:RDF>
      <cc:Work
         rdf:about="">
        <dc:format>image/svg+xml</dc:format>
        <dc:type
           rdf:resource="http://purl.org/dc/dcmitype/StillImage" />
        <dc:title></dc:title>
      </cc:Work>
    </rdf:RDF>
  </metadata>
  <g
     id="layer1"
     transform="translate(-3.4454759,-151.23907)">
    <path
       style="fill:#000000;stroke-width:0.264583"
       d="m 31.125001,202.65149 c -0.877629,-0.17512 -1.90372,-1.35386 -2.233774,-2.56607 -0.410123,-1.50629 -0.139187,-6.03237 0.561438,-9.37899 0.314766,-1.50353 0.501962,-2.80403 0.415991,-2.89 -0.08597,-0.086 -0.589622,0.37028 -1.11922,1.01389 -1.6731,2.0333 -5.501132,5.61164 -7.680851,7.17986 -4.11718,2.96214 -7.921482,4.44661 -11.3672243,4.43557 -4.526233,-0.0145 -6.231913,-2.46576 -6.25558,-8.99002 -0.008,-2.19538 0.141514,-4.00481 0.444609,-5.382 1.856657,-8.4362 6.3152303,-16.49976 12.2406133,-22.13778 7.453267,-7.0918 14.612707,-10.44322 23.017548,-10.77479 3.039097,-0.11989 3.713649,-0.0663 5.325915,0.42345 2.153263,0.65403 4.219397,1.98736 4.909468,3.16819 0.627872,1.07441 0.641659,3.9016 0.025,5.12983 -0.23908,0.47619 -1.05904,1.52066 -1.822135,2.32102 -1.5665,1.64301 -3.793112,6.07204 -6.318171,12.56771 -3.470026,8.92658 -4.809358,13.87276 -4.627584,17.08974 0.133631,2.36493 0.632217,2.94209 2.528904,2.92739 3.264275,-0.0253 10.528112,-3.75622 16.163332,-8.302 1.339104,-1.08021 1.453129,-1.2725 2.319867,-3.91205 0.850032,-2.58868 0.884441,-2.82339 0.509905,-3.47828 -0.460404,-0.80503 -0.530744,-2.66315 -0.129215,-3.41342 0.315365,-0.58926 1.624785,-1.3255 2.770283,-1.55763 0.747414,-0.15146 0.895684,-0.41531 2.539939,-4.5198 0.960403,-2.39742 2.314229,-5.96629 3.008501,-7.93083 1.619958,-4.58387 2.445188,-6.1991 4.082348,-7.99041 1.46016,-1.59765 3.79636,-2.84044 5.75431,-3.06113 1.7968,-0.20252 1.7688,0.41122 -0.25233,5.53015 -2.13228,5.40046 -6.66634,18.70621 -6.44854,18.92402 0.25315,0.25314 5.92098,-0.44171 8.06403,-0.98861 1.06237,-0.27113 2.73729,-0.91634 3.722045,-1.43381 l 1.79046,-0.94086 1.27209,-3.23373 c 2.94796,-7.49391 4.91617,-9.86398 8.61405,-10.37282 0.8974,-0.12349 1.432,-0.0387 2.1707,0.34407 l 0.98008,0.50791 2.32721,-2.11527 c 3.063117,-2.78416 5.623647,-4.44545 8.468937,-5.49472 2.03605,-0.75083 2.67015,-0.86123 5.10307,-0.88847 4.63557,-0.0519 7.06166,1.11908 8.51175,4.10831 0.9528,1.96411 1.29615,3.84073 1.29821,7.09564 0.004,6.6455 -2.97916,14.29528 -8.46507,21.70557 -2.17738,2.94117 -6.32985,7.09501 -8.59611,8.59895 -1.09641,0.72761 -1.99701,1.39664 -2.00134,1.48674 -0.0116,0.24127 1.76584,0.49273 3.43172,0.4855 4.52228,-0.0196 10.78944,-2.21347 17.01102,-5.95474 1.72298,-1.0361 2.17042,-1.45383 2.72104,-2.54044 0.99689,-1.96726 3.86172,-4.45726 5.12824,-4.45726 0.16455,0 0.27772,0.77095 0.28159,1.91823 0.008,2.33737 0.36674,3.99876 1.08014,5.00063 0.44418,0.62381 0.72804,0.7538 1.64339,0.75258 0.60855,-8e-4 1.5441,-0.12303 2.07899,-0.2716 3.28961,-0.91367 9.93527,-7.44923 16.53737,-16.26338 4.95577,-6.61622 5.82806,-8.15743 7.4874,-13.22917 1.35302,-4.13545 1.83874,-5.13816 2.93636,-6.06174 1.27064,-1.06918 2.13316,-1.43622 4.16254,-1.77137 3.32913,-0.54979 3.91437,-0.0521 3.48644,2.96524 -0.33801,2.38326 -1.44246,5.70931 -3.12735,9.41799 -2.29047,5.04163 -7.45216,21.15067 -7.45216,23.25731 0,1.02358 0.70718,1.05589 2.61216,0.11938 4.83557,-2.37722 12.44772,-8.85766 16.88794,-14.37717 1.44577,-1.7972 1.70797,-2.33813 3.11818,-6.433 2.25504,-6.54803 4.05562,-11.03929 5.16815,-12.89116 1.68591,-2.80629 3.70714,-3.88277 7.29043,-3.88277 1.33525,0 1.47097,0.057 1.73254,0.7276 0.92187,2.36349 -1.32259,8.72974 -5.37937,15.25824 -1.5042,2.42066 -2.67736,5.71433 -5.33227,14.97041 -2.41789,8.42975 -2.71962,10.64034 -1.60451,11.75545 1.64902,1.64902 9.54486,-1.72741 16.19361,-6.92471 2.34962,-1.83669 2.56042,-1.94657 2.88442,-1.50347 0.66614,0.911 0.377,1.412 -1.83326,3.17652 -5.51343,4.40155 -13.73629,9.13247 -18.83105,10.8342 -2.6969,0.90081 -6.47086,1.40288 -7.39164,0.98335 -1.60054,-0.72925 -1.17297,-4.09595 1.8396,-14.48489 0.97055,-3.34697 1.82385,-6.42525 1.89622,-6.8406 0.11172,-0.64115 -0.32304,-0.29827 -2.87906,2.27064 -2.8801,2.89464 -13.03173,11.61505 -16.45502,14.13513 -2.51663,1.85264 -6.16549,3.53171 -7.67489,3.53171 -1.11812,0 -1.28196,-0.0773 -1.54129,-0.72761 -0.20878,-0.52349 -0.21091,-1.28425 -0.008,-2.71197 0.21667,-1.52133 3.07064,-11.70002 6.02759,-21.4974 0.26203,-0.86819 -0.54681,-0.46675 -1.3441,0.66711 -1.38063,1.96342 -9.04155,11.41435 -11.39683,14.05975 -3.76084,4.22407 -8.08393,7.64149 -11.26277,8.90323 -0.80937,0.32125 -2.2814,0.61911 -3.40888,0.68977 -1.67432,0.10493 -2.11673,0.0407 -2.83143,-0.41131 -1.2781,-0.80826 -1.73817,-1.94342 -1.91124,-4.71567 l -0.15212,-2.43682 -1.25474,0.78239 c -8.27829,5.16189 -14.00721,6.9672 -21.76401,6.85832 l -3.704167,-0.052 -2.11667,0.94596 c -6.27554,2.80461 -12.49688,1.37621 -14.71074,-3.37752 -1.553645,-3.33609 -1.635535,-7.62872 -0.272945,-14.30644 0.415715,-2.03729 0.724705,-3.74173 0.686645,-3.78764 -0.0381,-0.0459 -0.798905,0.28488 -1.690755,0.73509 -2.35436,1.18848 -6.0981,2.38154 -9.26847,2.95369 -1.52167,0.27461 -2.84556,0.58779 -2.941957,0.69595 -0.0964,0.10817 -0.446807,1.32775 -0.778676,2.7102 -0.805157,3.35398 -2.49269,8.2379 -3.503338,10.13908 -0.827357,1.55638 -2.57538,3.32743 -4.032274,4.08538 -0.924978,0.48122 -4.325937,0.73649 -4.871003,0.36561 -0.753472,-0.51269 -0.661696,-2.89124 0.216908,-5.6216 0.449699,-1.3975 0.817637,-2.62789 0.817637,-2.73421 0,-0.10632 -0.446484,0.15529 -0.992188,0.58135 -0.545703,0.42606 -2.06375,1.48454 -3.373437,2.35218 -8.138181,5.39139 -16.72671,9.00909 -19.889552,8.37797 z m 70.028099,-9.14065 c 6.49052,-3.0859 12.27134,-15.34976 12.25559,-25.9999 -0.004,-2.65394 -0.10256,-3.42823 -0.60101,-4.71804 -1.09164,-2.8247 -2.57177,-3.93174 -5.72929,-4.2851 -1.31172,-0.14679 -1.85409,-0.0638 -3.41175,0.52183 -4.582717,1.72306 -8.484317,5.50422 -11.208587,10.86256 -1.95348,3.84229 -2.79329,9.37641 -2.17883,14.35795 0.67913,5.50582 2.72131,8.51015 6.71988,9.88588 1.56015,0.53678 1.77952,0.50376 4.153997,-0.62518 z m -81.157631,-0.66102 c 6.430108,-3.01954 11.100591,-9.50343 15.012173,-20.84096 0.753094,-2.18281 1.836962,-4.92945 2.408595,-6.10364 1.181989,-2.42793 3.361206,-5.03644 4.661432,-5.57971 0.998235,-0.41709 0.935923,-0.75587 -0.366909,-1.9948 -1.337455,-1.27186 -2.600899,-1.65045 -5.395026,-1.61663 -6.599132,0.0799 -11.352321,2.84608 -16.367202,9.52513 -4.636025,6.17448 -7.972679,15.08429 -8.056211,21.51236 -0.04194,3.22755 0.396643,4.46782 1.948273,5.5095 1.332557,0.8946 3.712732,0.73557 6.154875,-0.41125 z"
       id="path847" />
  </g>
</svg>
