<?xml version="1.0" encoding="UTF-8" standalone="no"?>
<svg
   xmlns="http://www.w3.org/2000/svg"
   width="80mm"
   height="20mm"
   viewBox="0 0 80 20"
   version="1.1">
  <g>
    <path
       style="fill:#000000;stroke-width:0.104142"
       d="m 11.038884,19.972279 c -0.350007,-0.06803 -0.759223,-0.525936 -0.890852,-0.996846 -0.1635614,-0.585151 -0.05551,-2.343406 0.223907,-3.643474 0.125532,-0.584079 0.200188,-1.089286 0.165902,-1.122683 -0.03429,-0.03341 -0.235148,0.143843 -0.446357,0.393867 -0.6672496,0.78988 -2.1939089,2.179965 -3.0632036,2.789174 C 5.3863059,18.543025 3.8691104,19.1197 2.4949123,19.115411 0.68980321,19.109778 0.00956017,18.157533 1.2152048e-4,15.623041 -0.00306896,14.770198 0.05655879,14.067285 0.17743624,13.532286 0.9178905,10.255059 2.6960162,7.1225929 5.059121,4.9323807 8.0315619,2.1774158 10.886822,0.87548339 14.23876,0.74667777 c 1.212024,-0.0465739 1.481042,-0.0257557 2.124031,0.16449842 0.858744,0.25407221 1.682739,0.77203351 1.957947,1.23075271 0.250402,0.4173781 0.2559,1.5156619 0.01,1.9927947 -0.09535,0.1849864 -0.422356,0.5907337 -0.726686,0.901651 -0.624737,0.6382632 -1.512733,2.3588168 -2.519753,4.8822019 -1.383883,3.4677255 -1.918022,5.3891775 -1.845529,6.6388835 0.05329,0.918709 0.252135,1.142919 1.008553,1.137209 1.301828,-0.0098 4.198722,-1.459186 6.446107,-3.225094 0.534048,-0.419631 0.579523,-0.49433 0.925187,-1.519721 0.339001,-1.00563 0.352724,-1.096808 0.203355,-1.351214 -0.183614,-0.312732 -0.211666,-1.034559 -0.05153,-1.326018 0.125771,-0.228911 0.647981,-0.5149194 1.104818,-0.6050954 0.298076,-0.058838 0.357208,-0.1613363 1.012954,-1.7558152 C 24.271233,6.9803811 24.811153,5.5939755 25.088036,4.830807 25.734092,3.0501024 26.063202,2.4226309 26.716119,1.7267574 27.298446,1.1061153 28.230147,0.62332629 29.010998,0.53759443 29.727581,0.45892113 29.716414,0.69734184 28.910366,2.6859022 28.059991,4.783829 26.25176,9.9527388 26.338621,10.037352 26.43958,10.135692 28.69997,9.8657599 29.55464,9.6533046 29.978325,9.5479783 30.6463,9.2973323 31.039031,9.0963098 l 0.714054,-0.3654977 0.507323,-1.2562132 c 1.175677,-2.9111733 1.96062,-3.8318788 3.435373,-4.0295488 0.357893,-0.047972 0.571097,-0.015034 0.865698,0.1336615 l 0.390866,0.1973087 0.928116,-0.8217229 C 39.102064,1.8727296 40.12323,1.2273651 41.257962,0.81975321 42.06996,0.52807687 42.322846,0.48518958 43.29312,0.4746076 c 1.848713,-0.0201617 2.816263,0.43473111 3.394575,1.5959629 0.379986,0.7630015 0.516918,1.4920156 0.517739,2.7564566 0.0016,2.5815899 -1.18812,5.5533139 -3.375958,8.4320039 -0.868362,1.142562 -2.524411,2.756212 -3.428219,3.34045 -0.43726,0.282656 -0.796428,0.542555 -0.798155,0.577557 -0.0046,0.09373 0.704235,0.191411 1.368606,0.188603 1.803532,-0.0076 4.302941,-0.859871 6.784172,-2.313249 0.687143,-0.402496 0.865587,-0.564772 1.08518,-0.98689 0.39757,-0.764225 1.540094,-1.73152 2.045196,-1.73152 0.06562,0 0.110757,0.299492 0.112301,0.745178 0.0032,0.908003 0.146259,1.553406 0.430771,1.942605 0.177143,0.242332 0.29035,0.29283 0.655401,0.292356 0.242696,-3.11e-4 0.615803,-0.04779 0.829123,-0.105509 1.311931,-0.354935 3.96229,-2.893817 6.595276,-6.317866 1.976413,-2.5702154 2.324291,-3.1689322 2.986054,-5.1391605 0.539598,-1.6065061 0.733308,-1.9960307 1.171051,-2.3548156 0.506744,-0.41534634 0.850726,-0.55793106 1.660064,-0.68812741 1.327692,-0.21357796 1.561092,-0.0202394 1.390429,1.15191231 -0.134802,0.9258295 -0.575268,2.2179064 -1.24722,3.6586243 -0.913463,1.9585315 -2.971999,8.2164409 -2.971999,9.0348109 0,0.397632 0.28203,0.410184 1.041756,0.04638 1.928476,-0.923483 4.964282,-3.440952 6.735088,-5.5851264 C 70.850907,8.3170779 70.955475,8.1069418 71.517882,6.5162 72.417215,3.9724745 73.135305,2.2277462 73.578994,1.5083468 74.251352,0.41818206 75.05744,-1.4764839e-7 76.486494,-1.4764839e-7 77.019005,-1.4764839e-7 77.073132,0.02214275 77.177449,0.28265199 77.5451,1.2008014 76.649986,3.6739105 75.0321,6.2100492 c -0.599891,0.9403583 -1.067759,2.2198565 -2.126565,5.8155828 -0.96428,3.274721 -1.084613,4.133473 -0.639896,4.566662 0.657647,0.640598 3.80659,-0.67105 6.458181,-2.690055 0.937054,-0.713502 1.021123,-0.756188 1.150337,-0.584056 0.265664,0.353898 0.150352,0.548523 -0.731123,1.233989 -2.198814,1.709878 -5.478176,3.547708 -7.51002,4.208782 -1.075552,0.349939 -2.580647,0.544979 -2.947863,0.382004 -0.638312,-0.283293 -0.467793,-1.591162 0.733651,-5.626973 0.387066,-1.300203 0.727371,-2.496029 0.756233,-2.65738 0.04456,-0.249069 -0.128832,-0.11587 -1.148199,0.882079 -1.148614,1.124487 -5.197191,4.512121 -6.562435,5.491101 -1.003658,0.719699 -2.458862,1.37197 -3.060826,1.37197 -0.445918,0 -0.511259,-0.03003 -0.614683,-0.282656 -0.08326,-0.203361 -0.08411,-0.498895 -0.0032,-1.053524 0.08641,-0.590994 1.224603,-4.545129 2.403866,-8.3511355 0.1045,-0.3372674 -0.218074,-0.1813192 -0.536041,0.2591535 -0.55061,0.7627335 -3.605865,4.434154 -4.545175,5.461818 -1.499863,1.640932 -3.223956,2.968504 -4.491711,3.458654 -0.322785,0.124797 -0.909846,0.240507 -1.359497,0.267956 -0.667736,0.04076 -0.844174,0.01581 -1.129204,-0.159782 -0.50972,-0.313986 -0.6932,-0.754964 -0.762223,-1.831905 l -0.06067,-0.946636 -0.500403,0.303936 c -3.301469,2.005249 -5.586222,2.706561 -8.679715,2.664265 l -1.477261,-0.0202 -0.84415,0.367479 c -2.502751,1.089512 -4.983886,0.534619 -5.866797,-1.312072 -0.61961,-1.295977 -0.652268,-2.963543 -0.108853,-5.557649 0.165791,-0.79143 0.28902,-1.453557 0.273841,-1.471392 -0.01519,-0.01783 -0.318612,0.110668 -0.674291,0.285562 -0.938943,0.461691 -2.431986,0.925161 -3.696363,1.147425 -0.606858,0.106679 -1.134839,0.22834 -1.173283,0.270357 -0.03844,0.04202 -0.178191,0.515794 -0.310544,1.052837 -0.321105,1.302927 -0.994111,3.200192 -1.397168,3.938747 -0.329959,0.60461 -1.027089,1.292613 -1.608113,1.587056 -0.368891,0.18694 -1.725229,0.286105 -1.942607,0.142029 -0.300493,-0.199166 -0.263891,-1.123166 0.0865,-2.183834 0.179345,-0.542889 0.326082,-1.020861 0.326082,-1.062163 0,-0.0413 -0.178062,0.06033 -0.395695,0.225838 -0.217632,0.165512 -0.823045,0.576702 -1.345362,0.913756 -3.245592,2.094403 -6.670787,3.499778 -7.932161,3.254605 z m 27.927939,-3.550885 c 2.588488,-1.198786 4.893939,-5.96295 4.887658,-10.1002302 -0.0016,-1.0309811 -0.0409,-1.331771 -0.239689,-1.8328259 -0.435357,-1.0973165 -1.025649,-1.5273704 -2.284901,-1.6646408 -0.523128,-0.057024 -0.73943,-0.024784 -1.360641,0.2027162 -1.827636,0.6693604 -3.383635,2.1382347 -4.470102,4.2197991 -0.779069,1.4926217 -1.113994,3.6424716 -0.868941,5.5776596 0.270845,2.138857 1.085287,3.305954 2.679959,3.840387 0.622204,0.208524 0.709691,0.195696 1.656657,-0.242865 z M 6.6003105,16.164606 C 9.1647049,14.9916 11.027342,12.472791 12.587322,8.0684792 12.887664,7.2205189 13.319922,6.1535265 13.547895,5.6973867 14.019285,4.7542042 14.888379,3.7408714 15.406923,3.5298263 15.80503,3.3677985 15.780179,3.236192 15.260596,2.7549026 14.727205,2.2608207 14.22333,2.1137492 13.109003,2.1268873 10.4772,2.1579262 8.5815786,3.2325093 6.5815915,5.8271324 4.7326962,8.2257443 3.4020037,11.686955 3.3686902,14.184079 c -0.016726,1.253813 0.1581854,1.735623 0.7769917,2.140286 0.5314377,0.347527 1.4806764,0.285748 2.4546286,-0.159759 z"/>
  </g>
</svg>
